<?xml version="1.0" standalone="no"?>
<!DOCTYPE svg PUBLIC "-//W3C//DTD SVG 20010904//EN"
 "http://www.w3.org/TR/2001/REC-SVG-20010904/DTD/svg10.dtd">
<svg version="1.0" xmlns="http://www.w3.org/2000/svg"
 width="641.000000pt" height="641.000000pt" viewBox="0 0 641.000000 641.000000"
 preserveAspectRatio="xMidYMid meet">
<metadata>
Created by potrace 1.11, written by Peter Selinger 2001-2013
</metadata>
<g transform="translate(0.000000,641.000000) scale(0.100000,-0.100000)"
fill="#000000" stroke="none">
<path d="M2789 6406 c-2 -2 -56 -7 -119 -10 -114 -6 -287 -21 -365 -32 -59 -8
-106 -15 -136 -20 -15 -2 -47 -6 -70 -9 -24 -3 -107 -19 -185 -35 -984 -202
-1540 -691 -1680 -1475 -22 -119 -23 -135 -29 -308 -5 -134 5 -256 29 -362
109 -482 357 -1040 805 -1812 71 -121 261 -422 388 -614 137 -207 334 -478
471 -647 24 -29 49 -61 57 -70 38 -48 192 -231 216 -257 208 -229 315 -336
465 -466 59 -50 192 -149 202 -149 6 0 12 -4 14 -8 6 -16 137 -82 213 -107
190 -64 369 -1 661 232 139 111 387 358 544 543 12 14 32 37 45 51 72 82 311
386 408 520 131 182 274 390 430 629 44 68 259 421 285 470 11 19 61 109 111
200 336 603 569 1181 636 1576 25 147 10 495 -27 639 -9 35 -15 62 -22 100 -1
6 -5 16 -9 23 -5 6 -6 12 -3 12 9 0 -59 179 -102 270 -107 224 -294 445 -499
588 -48 34 -93 65 -99 69 -42 31 -228 127 -315 163 -41 17 -83 35 -94 40 -40
18 -311 104 -364 115 -9 2 -56 12 -106 24 -92 20 -141 30 -185 36 -14 2 -41 6
-60 10 -63 11 -137 21 -220 31 -30 3 -66 8 -80 9 -14 2 -65 6 -115 10 -49 4
-110 9 -135 12 -54 6 -955 14 -961 9z"/>
</g>
</svg>
